<svg width="124" height="32" viewBox="0 0 124 32" fill="none" xmlns="http://www.w3.org/2000/svg">
<path d="M40.1223 20.371L33.6118 16.1226V14.6584L40.1223 10.4513V12.5549L35.6086 15.4008L40.1223 18.2468V20.371ZM79.0486 22.49C78.2088 22.49 77.3855 22.4002 76.5786 22.2206C75.7882 22.0411 75.0719 21.8124 74.4297 21.5349L74.5532 17.2492L76.3316 17.3471L76.7515 19.9186C77.015 20.0165 77.3443 20.1145 77.7395 20.2124C78.1347 20.3104 78.5464 20.3594 78.9745 20.3594C79.5179 20.3594 80.0284 20.2778 80.5059 20.1145C80.9999 19.9349 81.3951 19.6655 81.6915 19.3063C82.0045 18.9471 82.1608 18.49 82.1608 17.9349C82.1608 17.4941 82.0702 17.1186 81.8891 16.8084C81.708 16.4981 81.428 16.2042 81.0493 15.9267C80.6706 15.6492 80.1601 15.3635 79.5179 15.0696C78.8757 14.7593 78.25 14.4573 77.6407 14.1635C77.0314 13.8696 76.4798 13.5348 75.9858 13.1594C75.5083 12.7839 75.1213 12.3348 74.8249 11.8124C74.545 11.2737 74.405 10.6206 74.405 9.85326C74.405 8.95525 74.6438 8.17983 75.1213 7.52672C75.6153 6.85738 76.274 6.34309 77.0973 5.98387C77.9371 5.62464 78.8428 5.44509 79.8143 5.44509C80.5882 5.44509 81.3375 5.51856 82.062 5.6655C82.7865 5.79607 83.4618 5.9675 84.0875 6.17979L84.4333 10.4165H82.7042L81.568 7.8206C81.3045 7.73901 81.0164 7.68178 80.7035 7.64917C80.3906 7.60019 80.0778 7.5757 79.7649 7.5757C79.238 7.5757 78.7604 7.66554 78.3323 7.84509C77.9206 8.0084 77.5913 8.2533 77.3443 8.57979C77.1138 8.89003 76.9985 9.25738 76.9985 9.68183C76.9985 10.1063 77.1138 10.4736 77.3443 10.7839C77.5748 11.0941 77.8712 11.3635 78.2335 11.592C78.6122 11.8206 79.0239 12.0328 79.4685 12.2288C79.9131 12.4083 80.3412 12.5961 80.7529 12.792C81.7409 13.2492 82.5232 13.7226 83.0994 14.2124C83.6923 14.6859 84.1203 15.2002 84.3839 15.7553C84.6474 16.3104 84.7791 16.9308 84.7791 17.6165C84.7791 18.4492 84.6144 19.1757 84.2851 19.7961C83.9722 20.4002 83.5441 20.9063 83.0007 21.3145C82.4572 21.7063 81.8397 22.0002 81.1481 22.1961C80.4565 22.392 79.7567 22.49 79.0486 22.49ZM91.887 22.49C90.866 22.49 89.9604 22.2287 89.17 21.7063C88.3796 21.1839 87.7621 20.4655 87.3175 19.5512C86.8729 18.637 86.6506 17.6002 86.6506 16.441C86.6506 15.2329 86.8811 14.1879 87.3422 13.3063C87.8032 12.4083 88.4207 11.7145 89.1947 11.2247C89.9851 10.7349 90.8825 10.49 91.887 10.49C92.9079 10.49 93.8136 10.743 94.604 11.2492C95.3944 11.739 96.0119 12.4328 96.4565 13.3308C96.9011 14.2288 97.1234 15.2655 97.1234 16.441C97.1234 17.6165 96.9011 18.6615 96.4565 19.5757C96.0119 20.4899 95.3944 21.2084 94.604 21.7308C93.8136 22.237 92.9079 22.49 91.887 22.49ZM91.887 20.6043C92.5127 20.6043 93.0396 20.441 93.4678 20.1145C93.8959 19.7716 94.217 19.2982 94.4311 18.6941C94.6451 18.0899 94.7522 17.3797 94.7522 16.5635C94.7522 15.7634 94.6451 15.0451 94.4311 14.4084C94.217 13.7716 93.8959 13.2737 93.4678 12.9145C93.0396 12.5553 92.5127 12.3757 91.887 12.3757C91.4094 12.3757 90.9895 12.49 90.6273 12.7186C90.2815 12.9308 89.9851 13.241 89.7381 13.6492C89.5075 14.041 89.3346 14.4982 89.2194 15.0206C89.1041 15.5268 89.0465 16.0737 89.0465 16.6614C89.0465 17.4615 89.1535 18.1634 89.3676 18.7675C89.5981 19.3553 89.9192 19.8125 90.3309 20.139C90.759 20.4492 91.2777 20.6043 91.887 20.6043ZM99.2299 22.392L98.9576 21.0696L100.341 20.7512V12.3512H98.6612L98.3154 10.7594L98.4883 10.5145H100.341V8.50632C100.341 7.59207 100.49 6.84101 100.786 6.25325C101.082 5.64913 101.493 5.20831 102.021 4.93081C102.564 4.63693 103.182 4.48999 103.873 4.48999C104.202 4.48999 104.556 4.53897 104.936 4.63693C105.331 4.73489 105.717 4.88995 106.097 5.10224C106.492 5.31452 106.845 5.60015 107.159 5.95938L105.108 7.64917L103.948 6.37571H103.676C103.264 6.37571 102.984 6.51452 102.836 6.79203C102.703 7.0533 102.638 7.3553 102.638 7.69815V10.5145H105.405C105.487 10.5145 105.528 10.5635 105.528 10.6614V12.3512H102.638V20.7267L105.183 21.0696L105.158 22.392H99.2299ZM111.232 22.49C110.705 22.49 110.236 22.3839 109.824 22.1716C109.413 21.9593 109.092 21.6247 108.86 21.1675C108.63 20.6941 108.515 20.0981 108.515 19.3798L108.564 12.3267H106.637L106.267 10.7594L106.44 10.5145H108.589L108.613 6.40019L110.663 5.93489L110.861 6.27774L110.836 10.5145H113.405C113.488 10.5145 113.529 10.5635 113.529 10.6614V12.3267H110.836V19.4288C110.836 19.9022 110.91 20.2124 111.059 20.3594C111.224 20.5063 111.454 20.5798 111.75 20.5798C112.064 20.5798 112.377 20.4899 112.689 20.3104C113.002 20.1308 113.224 19.992 113.356 19.8941L113.899 21.5349C113.686 21.7308 113.348 21.9431 112.886 22.1716C112.426 22.3839 111.874 22.49 111.232 22.49ZM115.594 20.371V18.2468L120.087 15.4008L115.594 12.5549V10.4513L122.084 14.6584V16.1226L115.594 20.371Z" fill="#323232"/>
<path d="M45.2459 22.2429C44.5656 22.2429 43.9103 22.1054 43.2799 21.8307C42.6493 21.5397 42.135 21.2244 41.7368 20.885L43.1305 18.9451C43.4457 19.2038 43.7859 19.4543 44.1509 19.6968C44.5159 19.9231 44.8809 20.0363 45.2459 20.0363C45.4949 20.0363 45.694 19.9635 45.8433 19.818C46.0091 19.6563 46.0922 19.3815 46.0922 18.9936V7.45118L44.1758 7.2087L44.4496 5.39005H50.1738V7.23295L48.6058 7.37844V18.2661C48.6058 19.1714 48.4814 19.8908 48.2325 20.4242C48.0001 20.9577 47.7015 21.3537 47.3366 21.6124C46.9881 21.8711 46.6231 22.0409 46.2415 22.1217C45.8598 22.2024 45.528 22.2429 45.2459 22.2429ZM55.1583 22.2429C54.4283 22.2429 53.7894 22.1136 53.2419 21.8549C52.6944 21.5801 52.263 21.2002 51.9477 20.7152C51.6491 20.214 51.4998 19.6483 51.4998 19.0178C51.4998 18.2581 51.6989 17.6356 52.0971 17.1507C52.5119 16.6495 53.0345 16.2615 53.665 15.9867C54.3121 15.6957 55.0007 15.4937 55.7307 15.3805C56.4607 15.2512 57.1493 15.1785 57.7964 15.1623V13.4164C57.7964 13.0769 57.6304 12.7939 57.2986 12.5677C56.9833 12.3414 56.5188 12.2282 55.9049 12.2282C55.7224 12.2282 55.5149 12.2444 55.2827 12.2767C55.0505 12.2929 54.8596 12.3414 54.7103 12.4222L54.1876 13.9741L51.5993 13.1011C51.9146 12.2767 52.4704 11.622 53.2668 11.137C54.0798 10.6358 54.9923 10.3853 56.0044 10.3853C56.8175 10.3853 57.5308 10.5146 58.1448 10.7733C58.7587 11.032 59.2398 11.436 59.5883 11.9857C59.9367 12.5192 60.1109 13.2143 60.1109 14.0711V19.8908C60.1109 20.0848 60.1524 20.2383 60.2354 20.3515C60.3349 20.4647 60.4676 20.5212 60.6336 20.5212C60.7165 20.5212 60.7995 20.5132 60.8824 20.497C60.9654 20.4647 61.0235 20.4405 61.0567 20.4242L61.43 21.5882C61.2973 21.7175 61.0733 21.863 60.758 22.0247C60.4593 22.1701 60.1192 22.2429 59.7376 22.2429C59.2565 22.2429 58.8832 22.1379 58.6177 21.9277C58.3521 21.7175 58.1448 21.4507 57.9955 21.1275C57.6637 21.4507 57.2488 21.7175 56.7511 21.9277C56.2699 22.1379 55.7389 22.2429 55.1583 22.2429ZM55.5565 20.3757C56.0376 20.3757 56.4773 20.2545 56.8755 20.012C57.2903 19.7695 57.5973 19.4785 57.7964 19.1391V16.8839C57.4313 16.8839 57.0248 16.9162 56.5769 16.9809C56.1289 17.0294 55.6975 17.1264 55.2827 17.2719C54.8845 17.4012 54.5527 17.5952 54.2872 17.8539C54.0217 18.1126 53.889 18.4521 53.889 18.8723C53.889 19.2765 54.0301 19.6321 54.3121 19.9393C54.5941 20.2303 55.0089 20.3757 55.5565 20.3757ZM64.8473 28.79C64.4824 28.79 64.0593 28.7093 63.578 28.5476C63.0969 28.3859 62.6407 28.1273 62.2092 27.7716L63.2794 26.1227C63.4287 26.2197 63.6362 26.3732 63.9016 26.5834C64.1837 26.8097 64.4657 26.9229 64.7478 26.9229C64.9966 26.9229 65.2124 26.8339 65.3948 26.6562C65.5774 26.4945 65.735 26.2682 65.8677 25.9772C66.017 25.7024 66.1499 25.4033 66.2659 25.08L66.8632 23.4553L62.8563 12.0584H61.9355L61.7364 10.5793L64.8224 10.361L68.1574 20.012L71.0693 12.0584H70.0489L69.8498 10.5793L72.8861 10.361L73.334 11.234C73.2013 11.5897 73.0271 12.0665 72.8114 12.6647C72.5958 13.2466 72.3469 13.9175 72.0648 14.6773C71.7994 15.421 71.509 16.205 71.1937 17.0294C70.895 17.8539 70.5881 18.6945 70.2728 19.5513C69.9742 20.392 69.6755 21.2082 69.3769 22.0004C69.0782 22.7926 68.8045 23.52 68.5556 24.1828C68.3234 24.8455 68.1076 25.4114 67.9085 25.8802C67.6431 26.543 67.3527 27.0846 67.0374 27.5049C66.7223 27.9413 66.3821 28.2646 66.017 28.4748C65.6521 28.685 65.2622 28.79 64.8473 28.79Z" fill="#00B090"/>
<path d="M22.964 1.79007H5.44032C3.54838 1.79007 2.01465 3.31908 2.01465 5.2052V22.6749C2.01465 24.5611 3.54838 26.0901 5.44032 26.0901H22.964C24.8559 26.0901 26.3896 24.5611 26.3896 22.6749V5.2052C26.3896 3.31908 24.8559 1.79007 22.964 1.79007Z" fill="#00B090"/>
<path d="M14.6281 19.2005C11.5168 20.9755 7.83939 20.8098 6.32239 20.4808C6.28304 20.4723 6.27815 20.4204 6.31467 20.4037C7.91526 19.6727 10.192 17.5798 11.1243 16.5147C11.1272 16.5114 11.1288 16.5074 11.1292 16.5029L11.2547 14.4491C11.2552 14.4407 11.2501 14.4327 11.2422 14.4291C5.49933 11.8172 5.24586 8.56567 5.85132 7.21374C5.86264 7.1885 5.89504 7.18226 5.91626 7.20062C8.94242 9.81629 14.8603 12.289 15.6853 12.7715C16.4117 13.1962 16.6822 13.9464 16.7476 14.3904C16.7512 14.4145 16.7925 14.4155 16.7967 14.3916C17.1868 12.2025 15.6368 11.3604 14.7211 11.1932C14.687 11.187 14.6731 11.1461 14.6975 11.1222C15.2821 10.5526 16.4636 9.4269 16.954 9.05375C17.5884 8.57117 19.2165 8.17053 20.2737 8.86899C21.0219 9.36319 22.1176 9.77056 22.7338 9.9647C22.7947 9.98394 22.7928 10.0716 22.7316 10.0895C20.8994 10.6258 20.0079 11.6319 19.7874 12.0834C18.6351 14.6201 18.6244 16.9205 14.6281 19.2005Z" fill="white"/>
<path d="M11.0058 16.0929C7.53435 15.2728 6.579 12.8577 6.52858 11.7112C6.52793 11.6935 6.54823 11.6841 6.56276 11.694C8.51012 13.034 8.68469 12.9641 11.1782 13.9085C13.1711 14.6634 13.7222 15.5025 13.7507 15.8349C13.7511 15.8394 13.7499 15.8437 13.7474 15.8475C13.4445 16.3125 11.7956 16.2053 11.0058 16.0929Z" fill="#323232"/>
</svg>
